<?xml version="1.0" encoding="UTF-8" standalone="no"?>
<!-- Created with Inkscape (http://www.inkscape.org/) -->

<svg
   version="1.1"
   id="svg3290"
   width="248.79184"
   height="245.37808"
   viewBox="0 0 248.79184 245.37808"
   sodipodi:docname="mec.png"
   xmlns:inkscape="http://www.inkscape.org/namespaces/inkscape"
   xmlns:sodipodi="http://sodipodi.sourceforge.net/DTD/sodipodi-0.dtd"
   xmlns="http://www.w3.org/2000/svg"
   xmlns:svg="http://www.w3.org/2000/svg">
  <defs
     id="defs3294" />
  <sodipodi:namedview
     id="namedview3292"
     pagecolor="#ffffff"
     bordercolor="#000000"
     borderopacity="0.25"
     inkscape:showpageshadow="2"
     inkscape:pageopacity="0.0"
     inkscape:pagecheckerboard="0"
     inkscape:deskcolor="#d1d1d1"
     showgrid="false" />
  <g
     inkscape:groupmode="layer"
     inkscape:label="Image"
     id="g3296"
     transform="translate(-82.130486,-324.16708)">
    <path
       style="fill:#000000"
       d="m 324.01781,569.21207 c -5.08755,1.3239 -9.37645,-1.39721 -10.10374,-6.41037 -0.35075,-2.41769 -0.75259,-2.78096 -4.60139,-4.15963 -3.89553,-1.39541 -5.47339,-2.84548 -20.69278,-19.01675 -16.47569,-17.50616 -16.47569,-17.50616 -28.49122,-6.19789 -12.01554,11.30826 -12.01554,11.30826 -18.18369,4.75433 -6.16814,-6.55393 -6.16814,-6.55393 3.66275,-15.80614 9.8309,-9.25222 9.8309,-9.25222 -62.30419,-85.89484 -68.67383,-72.96463 -99.150354,-112.88696 -85.736095,-112.30749 17.362665,0.75004 34.656785,15.71514 107.035895,92.62117 71.9535,76.45381 71.9535,76.45381 82.51261,66.51624 10.55911,-9.93757 10.55911,-9.93757 16.72725,-3.38364 6.16815,6.55393 6.16815,6.55393 -6.2115,18.20487 -12.37964,11.65094 -12.37964,11.65094 4.43873,29.52121 15.18805,16.13798 16.932,18.26053 17.99063,21.89628 1.02694,3.52692 1.50623,4.13303 3.86622,4.88929 7.25271,2.32411 7.31746,12.89272 0.0905,14.77336 z"
       id="path3665" />
    <path
       style="fill:#000000"
       d="m 82.426081,554.48063 c -1.245676,-5.10726 1.540932,-9.3539 6.564665,-10.00417 2.422792,-0.31361 2.792178,-0.70982 4.229757,-4.53702 1.455019,-3.87365 2.929131,-5.42908 19.332057,-20.39851 17.75693,-16.2051 17.75693,-16.2051 6.63438,-28.39276 -11.12254,-12.18766 -11.12254,-12.18766 -4.47473,-18.2545 6.64782,-6.06684 6.64782,-6.06684 15.74808,3.90488 9.10026,9.97172 9.10026,9.97172 86.84083,-60.97873 74.0099,-67.54603 114.39522,-97.40632 113.60997,-84.00253 -1.0164,17.3491 -16.24513,34.41154 -94.25283,105.60193 -77.549,70.77178 -77.549,70.77178 -67.77464,81.48215 9.77436,10.71036 9.77436,10.71036 3.12655,16.7772 -6.64782,6.06685 -6.64782,6.06685 -18.10741,-6.49013 -11.45959,-12.55698 -11.45959,-12.55698 -29.58584,3.98517 -16.36915,14.9386 -18.51822,16.64978 -22.16979,17.65249 -3.542265,0.9727 -4.155658,1.44263 -4.948038,3.79074 -2.435135,7.21619 -13.003495,7.11874 -14.773011,-0.13621 z"
       id="path3663" />
  </g>
</svg>
